<svg xmlns="http://www.w3.org/2000/svg" viewBox="0 0 739 728" fill="#707070">
    <g id="circle" data-name="circle" transform="translate(-432 -298)">
        <path id="Ellipse_1" data-name="Ellipse 1"
              d="M350,10C162.523,10,10,162.523,10,350S162.523,690,350,690,690,537.477,690,350,537.477,10,350,10m0-10C543.3,0,700,156.7,700,350S543.3,700,350,700,0,543.3,0,350,156.7,0,350,0Z"
              transform="translate(432 298)"/>
        <path id="Ellipse_2" data-name="Ellipse 2"
              d="M350,20C168.037,20,20,168.037,20,350S168.037,680,350,680,680,531.963,680,350,531.963,20,350,20m0-20C543.3,0,700,156.7,700,350S543.3,700,350,700,0,543.3,0,350,156.7,0,350,0Z"
              transform="translate(471 326)"/>
    </g>
</svg>
